[img]http://img10.imageshack.us/img10/6198/ff5f3b01b6.jpg[/img]
[code]


[color=blue][size=5][b]Trespass.2011.BDRip.XVID.AC3.HQ.Hive-CM8[/b][/size][/color]


[b]Thx Hive

CM8 Doing It Right The First Time :D


Source: Bluray

Video: 720x304 @bitrate 1800 2pass
Audio: English True HD AC3 640 to AC3 5.1 @448
Sample: Yes, included
Subs: Yes, english in srt /subs[/b]

 
http://www.imdb.com/title/tt1674784/


General
Complete name                  : Trespass.2011.BDRip.XVID.AC3.HQ.Hive-CM8.avi
Format                         : AVI
Format/Info                    : Audio Video Interleave
File size                      : 1.43 GiB
Duration                       : 1h 30mn
Overall bit rate               : 2 257 Kbps
Writing application            : Nandub v1.0rc2
Writing library                : Nandub build 1853/release

Video
ID                             : 0
Format                         : MPEG-4 Visual
Format profile                 : Advanced Simple@L5
Format settings, BVOP          : 1
Format settings, QPel          : Yes
Format settings, GMC           : No warppoints
Format settings, Matrix        : Default (H.263)
Muxing mode                    : Packed bitstream
Codec ID                       : XVID
Codec ID/Hint                  : XviD
Duration                       : 1h 30mn
Bit rate                       : 1 800 Kbps
Width                          : 720 pixels
Height                         : 304 pixels
Display aspect ratio           : 2.40:1
Frame rate                     : 23.976 fps
Color space                    : YUV
Chroma subsampling             : 4:2:0
Bit depth                      : 8 bits
Scan type                      : Progressive
Compression mode               : Lossy
Bits/(Pixel*Frame)             : 0.343
Stream size                    : 1.14 GiB (80%)
Writing library                : XviD 1.2.1 (UTC 2008-12-04)

Audio
ID                             : 1
Format                         : AC-3
Format/Info                    : Audio Coding 3
Mode extension                 : CM (complete main)
Codec ID                       : 2000
Duration                       : 1h 30mn
Bit rate mode                  : Constant
Bit rate                       : 448 Kbps
Channel(s)                     : 6 channels
Channel positions              : Front: L C R, Side: L R, LFE
Sampling rate                  : 48.0 KHz
Bit depth                      : 16 bits
Compression mode               : Lossy
Stream size                    : 291 MiB (20%)
Alignment                      : Split accross interleaves
Interleave, duration           : 42 ms (1.00 video frame)
Interleave, preload duration   : 500 ms


Plot:
As they're held for ransom, a husband and wife's predicament grows more
dire amid the discovery of betrayal and deception.


Cast:
Nicolas Cage     ...     Kyle Miller
Nicole Kidman    ...     Sarah Miller
Ben Mendelsohn   ...     Elias
Liana Liberato   ...     Avery Miller
Cam Gigandet     ...     Jonah
[/code]
Screens:
[img]http://img143.imageshack.us/img143/9553/58968839.png[/img]
[img]http://img51.imageshack.us/img51/8703/trtrn.png[/img]
[img]http://img84.imageshack.us/img84/8645/trtrtr.png[/img]
[img]http://img543.imageshack.us/img543/1341/trtrtrtr.png[/img]
[img]http://img80.imageshack.us/img80/1834/trtrtrtrtry.png[/img]
[img]http://img707.imageshack.us/img707/9314/trtrtrtrtrtr.png[/img]
[img]http://img803.imageshack.us/img803/9093/trtrtrtrtrtrtr.png[/img]